Simulation
nRows=47
nColumns=15
endheader
time  TH_x TH_y TH_z SC_y  SC_z  SC_x  AC_y  AC_z  AC_x  GH_y  GH_z  GH_yy  EL_x  PS_y
8.043000000000001  0.000000  0.000000  0.000000  -22.367363220324492  5.675258416366063  2.9417194038458647  52.59850149999096  8.492069550937874  5.110434739938872  -25.999565029574267  1.417417518121303  86.86808998602044  17.184706608122827  120.000000
8.078746666666667  0.000000  0.000000  0.000000  -22.101477649719556  5.692738107345782  2.666037925834518  52.38472731426588  8.517577029676154  5.154478995614127  -8.14608806356223  1.593930134662766  68.74910484570401  16.803430623142052  120.000000
8.114493333333334  0.000000  0.000000  0.000000  -21.83436870709942  5.650109752713812  2.3644499320469348  52.21692375647222  8.592320363774338  5.208159054095054  8.163887702831097  1.9927750204992833  52.076899219031134  16.3486223455536  120.000000
8.15024  0.000000  0.000000  0.000000  -21.57637248853138  5.5515612000366215  2.0472096192636124  52.09932332765434  8.724713261357664  5.266805329875219  20.36018086519505  2.6390576665965026  39.41433576558109  15.83150093853381  120.000000
8.185986666666667  0.000000  0.000000  0.000000  -21.338463584216335  5.408804600101245  1.7279356907207795  52.02793873250706  8.920718484861561  5.324040470993263  28.649761027774282  3.530681435798088  30.54622459394352  15.270919478267338  120.000000
8.221733333333335  0.000000  0.000000  0.000000  -21.13052781953748  5.238400604602042  1.423151582871658  51.99211946680753  9.183052633413505  5.373269466660673  34.16319974299346  4.664535927224362  24.333492943864023  14.690811575140438  120.000000
8.257480000000001  0.000000  0.000000  0.000000  -20.95956811319105  5.058576873202413  1.151621204103303  51.977300772435804  9.510690309479775  5.409380794935539  37.86837310872993  6.0425377415891  19.800784259778318  14.116814047143869  120.000000
8.293226666666667  0.000000  0.000000  0.000000  -20.827649630612033  4.886873166438357  0.9322702002122908  51.96897284949863  9.898206487716779  5.429141705695913  40.405425637110646  7.668155260914539  16.303876038223876  13.572723427703753  120.000000
8.328973333333334  0.000000  0.000000  0.000000  -20.730523871359885  4.738614676867356  0.781577528427538  51.955829768987876  10.335503606276118  5.430476430021375  42.16746009149885  9.541147883821086  13.451093048734158  13.076894496017283  120.000000
8.36472  0.000000  0.000000  0.000000  -20.658081455834612  4.625459872360162  0.7118535782993635  51.93045210306212  10.808215676344174  5.412530996765068  43.39053307009452  11.653209870288489  11.014364839074048  12.639233167606  120.000000
8.400466666666667  0.000000  0.000000  0.000000  -20.595958127533034  4.555144193807575  0.7307658337664399  51.88955767245343  11.299078272065453  5.375644764590754  44.219176163171454  13.985970035209146  8.86411714811922  12.261061003013756  120.000000
8.436213333333335  0.000000  0.000000  0.000000  -20.528728446831398  4.53117284567732  0.8417016691314058  51.833682331773474  11.789490175716347  5.321530920875403  44.74876927200744  16.512048582037306  6.925512989459119  11.937136589998836  120.000000
8.471960000000001  0.000000  0.000000  0.000000  -20.44248864478164  4.553246482012524  1.0448458705816133  51.76677951779297  12.260877895201745  5.254222833546494  45.04983769518667  19.19730498864154  5.153465898704026  11.659358106846405  120.000000
8.507706666666667  0.000000  0.000000  0.000000  -20.326679388469362  4.618849030197113  1.3379999425198268  51.696332596442765  12.696401348887909  5.179710216938666  45.17777003555202  22.003486204036008  3.520341665739984  11.420315030374333  120.000000
8.543453333333334  0.000000  0.000000  0.000000  -20.178387247750866  4.72366759428353  1.7174778918701732  51.631449183567504  13.082438598527476  5.104520242632486  45.174564828319255  24.891224920524493  2.0085864700835994  11.213506083972176  120.000000
8.5792  0.000000  0.000000  0.000000  -20.004202109207007  4.862923962987231  2.178894349038174  51.5822929068188  13.409763733552005  5.034184729359341  45.07028470815015  27.822843572004995  0.6071873921347851  11.033692143132384  120.000000
8.614946666666667  0.000000  0.000000  0.000000  -19.819527738303467  5.0315408066490495  2.7180874536421  51.559372397159045  13.67358666448979  4.973143646362517  44.88529512228571  30.763733063623786  -0.6909970893574159  10.877166325336026  120.000000
8.650693333333335  0.000000  0.000000  0.000000  -19.645940634582274  5.223937896421587  3.3314380467794873  51.57285287440034  13.873003690041537  4.924992087592734  44.63236466404823  33.68271780410811  -1.8912981395810176  10.741180420193306  120.000000
8.686440000000001  0.000000  0.000000  0.000000  -19.50732906095276  5.434301658462003  4.015825838621032  51.63220658548487  14.010155845225597  4.892719159782992  44.31887120499705  36.55145816513377  -2.998211841123386  10.623619746433118  120.000000
8.722186666666667  0.000000  0.000000  0.000000  -19.426027694576725  5.656965943732497  4.768208942577667  51.74541903380092  14.089355215068025  4.87908941024106  43.948650262906106  39.343328120905774  -4.016453562141746  10.522837572607019  120.000000
8.757933333333334  0.000000  0.000000  0.000000  -19.41978982587792  5.887060143068413  5.585230441437269  51.91838789697738  14.116377711787926  4.886793534938856  43.52355752428446  42.03255344609727  -4.9520437794492285  10.437567694385804  120.000000
8.79368  0.000000  0.000000  0.000000  -19.49956938096869  6.120921076680198  6.4626987069717305  52.15422315170376  14.097928878636505  4.918751528179506  43.0445890479618  44.59367341327465  -5.812681474644622  10.366965216462628  120.000000
8.829426666666667  0.000000  0.000000  0.000000  -19.668494191135625  6.356134486095384  7.395279751631949  52.45304216730023  14.041011376394975  4.978335354714362  42.51302676193143  47.00159772501983  -6.607677768984262  10.31080657378945  120.000000
8.865173333333335  0.000000  0.000000  0.000000  -19.92225960111129  6.59089001098204  8.37630954402022  52.811800947316016  13.952360236812718  5.069674021835297  41.931287690346714  49.232451281809176  -7.347514281048953  10.269506391260874  120.000000
8.900920000000001  0.000000  0.000000  0.000000  -20.251297678890378  6.824170397633132  9.398003754082737  53.22442117858252  13.83848926753749  5.196674175672866  41.30265737073532  51.26498528469841  -8.04237143944471  10.243725865617746  120.000000
8.936666666666667  0.000000  0.000000  0.000000  -20.643503283831745  7.055855613303749  10.451666231744529  53.68226702356986  13.705931255495177  5.361781150252692  40.63106594559356  53.0824170440168  -8.700754618624497  10.23370752940531  120.000000
8.972413333333334  0.000000  0.000000  0.000000  -21.085601361971552  7.285426657372955  11.52814498961552  54.17493070142795  13.560922567984912  5.565977648517892  39.92216987895007  54.67436758462746  -9.328412705756385  10.238924668998742  120.000000
9.00816  0.000000  0.000000  0.000000  -21.564460018270967  7.511326001976975  12.61815908187362  54.69112329651604  13.40925604295207  5.808531401304343  39.18427008049559  56.038479492064575  -9.927276251087317  10.257787660367276  120.000000
9.043906666666667  0.000000  0.000000  0.000000  -22.06869528893772  7.7311777092813125  13.712634186953906  55.21895835135724  13.256566535902085  6.086427584452359  38.427983674641716  57.18126467988638  -10.494365081088441  10.287162086193549  120.000000
9.079653333333335  0.000000  0.000000  0.000000  -22.589585719117043  7.941954382928307  14.802885067958645  55.74607979416292  13.108390802663518  6.394062264151755  37.665461345770694  58.117618704884826  -11.021974369521795  10.32233262396463  120.000000
9.115400000000001  0.000000  0.000000  0.000000  -23.120678705411777  8.13999247625841  15.880172478446614  56.260144057404425  12.969706067076652  6.723455322943698  36.90997746822186  58.869184025011165  -11.499209228279193  10.357499543738617  120.000000
9.151146666666667  0.000000  0.000000  0.000000  -23.656662147618807  8.321157813977639  16.934974717567986  56.74939637675105  12.844327880428446  7.064639043941235  36.17539009656622  59.461795937616074  -11.91433435530612  10.386665584886988  120.000000
9.186893333333334  0.000000  0.000000  0.000000  -24.192103823750994  8.481418067510514  17.95595670958376  57.203276992443215  12.734480496192846  7.406240397872341  35.475571758279195  59.922878659367775  -12.257219684391456  10.40457203619464  120.000000
9.22264  0.000000  0.000000  0.000000  -24.719071661963667  8.617313444839347  18.929245083789873  57.61382571919947  12.640248601909638  7.73624712562632  34.82480259849409  60.278985826891606  -12.522092932570224  10.408138249489337  120.000000
9.258386666666668  0.000000  0.000000  0.000000  -25.225734931639884  8.726744257106663  19.83908703160505  57.97661331715445  12.558883944063764  8.04219292630426  34.23774178328318  60.55405709532784  -12.709303013864721  10.397293594952014  120.000000
9.294133333333335  0.000000  0.000000  0.000000  -25.697186127375023  8.809152053381775  20.66893789643243  58.28977945934981  12.484763853389179  8.311155090230626  33.72785733613205  60.767930598969976  -12.825123413814602  10.374728994228244  120.000000
9.329880000000001  0.000000  0.000000  0.000000  -26.11639511090283  8.8654102092547  21.401455839861892  58.55350648733084  12.41064897715367  8.530053067264115  33.30693849704409  60.935207367563066  -12.88056141618927  10.344855250123214  120.000000
9.365626666666667  0.000000  0.000000  0.000000  -26.465623744416177  8.897713025011127  22.01926185549824  58.7698549170892  12.328916443581743  8.686362673287297  32.98570710637899  61.0649729424314  -12.889576960220158  10.312963758233554  120.000000
9.401373333333334  0.000000  0.000000  0.000000  -26.72846105833318  8.908471939520213  22.50631649925648  58.94154457443473  12.23280144251075  8.769304469561364  32.77387035552628  61.16104568694461  -12.866670188777803  10.283938958569419  120.000000
9.43712  0.000000  0.000000  0.000000  -26.892488300179068  8.899665897854085  22.849469225080632  59.070772493164604  12.11795253909632  8.770555407140119  32.67975276338853  61.22245778186648  -12.82439630088645  10.260967505655998  120.000000
9.472866666666668  0.000000  0.000000  0.000000  -26.951055218703495  8.87195776588584  23.039207606217968  59.15827394964984  11.983460668850778  8.68504773162232  32.71012585090499  61.24373988347833  -12.771325305564805  10.244441381904663  120.000000
9.508613333333335  0.000000  0.000000  0.000000  -26.90370001061717  8.824104833794005  23.069944387822254  59.2032864451448  11.831330012791303  8.511169337301697  32.8703404498729  61.21482614544977  -12.7110775255572  10.231720927238369  120.000000
9.544360000000001  0.000000  0.000000  0.000000  -26.755501504492454  8.753378335900658  22.940065786960083  59.20392349041066  11.66549457266252  8.250844703340672  33.16413187827286  61.121046843769  -12.642233155791365  10.217621494638655  120.000000
9.580106666666667  0.000000  0.000000  0.000000  -26.515696149124032  8.656092576920758  22.651849444228972  59.15763623649022  11.490646537430584  7.909729787429726  33.59325564370855  60.94319466718438  -12.559110088230772  10.195758937648145  120.000000
9.615853333333334  0.000000  0.000000  0.000000  -26.195964675599434  8.528554893628327  22.21120016129996  59.06172481201215  11.311585686626264  7.497236005896858  34.15682457081909  60.65737660871646  -12.452850489464165  10.160059031020062  120.000000
9.6516  0.000000  0.000000  0.000000  -25.80910021541275  8.367794560456817  21.62768742700662  58.91372982481791  11.132794725465939  7.026254174809473  34.85058701679253  60.234979780296776  -12.312730226441676  10.106741009463748  120.000000
9.687346666666668  0.000000  0.000000  0.000000  -25.368017321306304  8.172439831975668  20.914454749006204  58.71171570321866  10.958618905575296  6.512518691125276  35.66598050765175  59.642950545945766  -12.127247220676958  10.035908570836005  120.000000
